<?xml version="1.0" standalone="no"?>
<!DOCTYPE svg PUBLIC "-//W3C//DTD SVG 20010904//EN"
 "http://www.w3.org/TR/2001/REC-SVG-20010904/DTD/svg10.dtd">
<svg version="1.0" xmlns="http://www.w3.org/2000/svg"
 width="900.000000pt" height="900.000000pt" viewBox="0 0 900.000000 900.000000"
 preserveAspectRatio="xMidYMid meet">
<metadata>
Created by potrace 1.10, written by Peter Selinger 2001-2011
</metadata>
<g transform="translate(0.000000,900.000000) scale(0.100000,-0.100000)"
fill="#ffffff" stroke="none">
<path d="M4578 6691 c-35 -28 -80 -63 -100 -78 -43 -33 -44 -36 -19 -65 169
-201 267 -302 346 -356 22 -15 45 -31 51 -37 11 -10 52 -31 114 -58 76 -33
144 -47 229 -46 78 0 105 3 206 24 17 3 40 8 53 11 12 2 22 8 22 13 0 9 -105
95 -170 140 -19 13 -37 27 -40 31 -3 4 -30 24 -60 45 -30 21 -57 41 -60 44 -3
4 -61 49 -130 101 -69 51 -180 136 -247 187 -67 51 -124 93 -126 93 -3 0 -34
-22 -69 -49z"/>
<path d="M4220 6418 c-85 -65 -180 -138 -210 -160 -30 -23 -57 -44 -60 -48 -3
-3 -39 -32 -81 -63 -87 -65 -109 -87 -87 -87 8 0 18 4 23 8 14 11 108 39 180
54 114 23 261 10 360 -32 17 -7 46 -19 65 -28 19 -8 89 -40 155 -71 238 -114
271 -123 456 -123 108 1 167 5 208 17 169 48 170 48 283 99 66 29 78 44 52 63
-22 16 -87 9 -149 -16 -31 -12 -78 -16 -200 -16 -165 0 -163 0 -275 48 -53 23
-157 88 -200 124 -84 71 -241 238 -299 320 -15 20 -32 33 -45 32 -12 -1 -91
-55 -176 -121z"/>
<path d="M6885 6068 c-27 -22 -68 -54 -89 -72 -21 -17 -51 -38 -65 -47 -36
-23 -91 -76 -91 -87 0 -10 72 -121 105 -162 97 -120 249 -225 365 -251 85 -20
191 -22 273 -5 43 9 86 20 95 25 9 5 40 19 67 31 64 29 105 58 105 73 0 11
-75 74 -150 126 -19 13 -37 27 -40 31 -3 4 -30 24 -60 45 -30 21 -57 41 -60
44 -3 4 -61 49 -130 101 -69 52 -153 116 -187 142 -34 26 -68 48 -75 47 -7 0
-35 -18 -63 -41z"/>
<path d="M4003 6080 c-34 -5 -71 -13 -82 -19 -11 -6 -28 -11 -38 -11 -10 0
-31 -7 -47 -15 -15 -8 -33 -15 -38 -15 -9 0 -46 -16 -168 -73 -55 -25 -172
-104 -190 -128 -3 -3 -23 -19 -46 -35 -23 -16 -133 -99 -245 -184 -112 -86
-233 -178 -269 -205 -36 -27 -67 -52 -70 -55 -3 -3 -117 -91 -255 -195 -137
-103 -252 -191 -255 -195 -3 -4 -21 -18 -40 -31 -57 -39 -180 -139 -180 -147
0 -4 15 -23 33 -42 37 -41 53 -65 67 -100 6 -14 16 -36 23 -49 8 -15 12 -70
12 -150 0 -127 -4 -146 -52 -261 -12 -28 -164 -342 -204 -422 -5 -10 -13 -35
-19 -58 -5 -22 -15 -59 -21 -82 -27 -107 24 -253 122 -349 39 -39 86 -71 151
-103 51 -25 101 -46 110 -46 8 0 31 -6 49 -14 19 -7 53 -16 77 -19 40 -5 46
-2 150 77 59 44 106 86 105 91 -1 6 -10 12 -20 14 -28 6 -80 50 -102 87 -20
34 -21 49 -21 568 0 569 0 575 53 722 50 139 154 276 292 384 39 30 72 57 75
61 6 6 206 156 240 179 12 8 41 28 64 44 65 47 252 172 267 180 8 3 28 15 44
26 17 11 39 24 50 30 11 6 40 22 65 36 25 14 86 46 135 71 50 24 103 51 118
59 16 8 33 14 39 14 5 0 24 6 41 14 128 55 283 62 412 20 121 -39 265 -102
355 -156 19 -11 57 -32 83 -47 92 -50 237 -144 387 -249 112 -80 115 -82 208
-151 251 -187 355 -297 429 -451 86 -180 93 -243 93 -798 0 -257 -4 -481 -9
-499 -8 -27 -7 -31 7 -26 10 4 80 55 157 114 126 96 141 111 153 150 20 63 31
229 41 605 10 339 10 338 58 489 35 110 160 254 275 319 36 20 71 36 77 36 7
0 27 6 44 14 45 19 205 45 318 50 53 3 116 10 140 15 24 6 67 15 94 21 77 17
124 29 143 39 144 71 185 95 248 149 41 35 74 69 74 76 0 12 -93 86 -109 86
-5 0 -16 -6 -23 -12 -40 -37 -158 -92 -259 -122 -76 -22 -253 -22 -323 1 -58
19 -148 62 -207 99 -82 52 -244 234 -272 307 -3 9 -14 17 -23 17 -10 0 -87
-53 -172 -117 -85 -65 -175 -133 -201 -152 -25 -19 -48 -37 -51 -41 -20 -26
-174 -131 -185 -126 -12 4 -15 40 -17 178 l-3 173 -160 122 c-88 67 -166 122
-172 122 -7 1 -41 -13 -75 -30 -95 -47 -120 -58 -151 -65 -15 -3 -30 -10 -33
-15 -3 -5 -14 -9 -24 -9 -11 0 -39 -6 -62 -14 -24 -7 -95 -21 -160 -31 -109
-16 -122 -16 -220 -1 -56 10 -119 23 -138 31 -96 37 -155 62 -260 112 -63 30
-123 59 -134 64 -80 44 -251 66 -373 49z"/>
<path d="M7814 5389 c-50 -54 -140 -118 -216 -155 -40 -19 -81 -40 -90 -45
-10 -5 -24 -9 -32 -9 -8 0 -27 -5 -43 -12 -60 -25 -157 -40 -473 -73 -185 -19
-345 -103 -441 -232 -55 -73 -71 -104 -91 -173 -38 -131 -41 -160 -49 -515 -4
-198 -12 -382 -18 -410 -14 -73 -13 -105 3 -105 8 0 16 4 18 8 2 4 40 36 86
71 83 63 122 109 122 145 0 20 25 100 47 153 7 17 13 36 13 42 0 10 16 49 52
126 78 166 198 271 373 328 67 21 292 41 383 33 47 -4 81 -2 95 6 12 6 94 66
182 133 88 67 189 144 225 170 36 27 70 54 77 61 6 6 59 46 117 89 58 44 106
85 106 91 0 14 -384 304 -403 304 -7 0 -26 -14 -43 -31z"/>
<path d="M2018 4733 c-21 -5 -24 -44 -6 -76 110 -200 19 -482 -205 -633 -23
-16 -44 -31 -47 -34 -8 -8 -43 -28 -75 -44 -16 -9 -66 -36 -110 -61 -44 -25
-92 -50 -107 -56 -16 -6 -28 -15 -28 -20 0 -5 -4 -9 -9 -9 -17 0 -94 -56 -141
-102 -77 -75 -100 -107 -138 -198 -25 -57 -36 -189 -19 -211 24 -32 743 -566
778 -579 31 -11 43 -11 70 0 36 14 396 282 416 309 15 20 0 31 -44 31 -17 0
-34 4 -37 9 -3 5 -20 12 -38 15 -82 15 -243 117 -302 189 -79 99 -101 162
-100 289 0 59 5 113 11 120 6 7 14 29 18 48 4 19 11 41 16 50 16 30 202 416
210 435 29 68 41 120 46 196 7 113 -18 200 -82 282 -25 31 -49 56 -53 56 -4
-1 -15 -3 -24 -6z"/>
<path d="M1875 4629 c-27 -23 -60 -49 -72 -60 -13 -10 -47 -35 -75 -55 -29
-21 -55 -40 -58 -44 -4 -6 -315 -242 -459 -349 -25 -19 -48 -37 -51 -41 -3 -4
-88 -69 -190 -145 -102 -76 -202 -154 -222 -173 -35 -33 -38 -41 -38 -89 0
-44 5 -58 31 -88 18 -20 44 -42 58 -50 14 -7 35 -22 46 -33 12 -10 45 -36 75
-57 30 -21 66 -49 80 -62 32 -30 60 -39 70 -22 5 7 14 42 21 78 6 36 15 71 19
76 4 6 11 21 15 35 11 36 81 129 134 178 70 65 203 151 324 209 31 15 57 31
57 35 0 4 5 8 12 8 6 0 47 23 91 52 91 59 182 154 221 230 25 48 34 77 53 176
12 67 -41 233 -75 231 -9 0 -39 -18 -67 -40z"/>
<path d="M7160 4508 c-19 -5 -54 -13 -76 -18 -89 -19 -211 -105 -279 -195 -34
-44 -95 -161 -95 -182 0 -10 -7 -27 -15 -37 -8 -11 -15 -29 -15 -41 0 -12 -4
-25 -9 -30 -6 -6 -14 -28 -20 -50 -5 -22 -13 -51 -17 -63 -6 -23 -6 -23 17
-10 24 13 230 167 239 178 3 4 122 95 265 203 286 216 315 239 315 250 0 10
-269 7 -310 -5z"/>
<path d="M3600 4461 c-7 -14 -9 -211 -8 -608 l3 -588 340 0 340 0 0 605 0 605
-332 3 c-321 2 -332 2 -343 -17z"/>
<path d="M4332 3231 c7 -10 153 -124 323 -252 171 -128 312 -236 315 -239 11
-16 71 -40 98 -40 25 0 154 75 172 99 3 4 118 92 255 195 252 190 305 233 305
248 0 4 -333 8 -741 8 -725 0 -740 0 -727 -19z"/>
</g>
</svg>
