<?xml version="1.0" encoding="UTF-8" standalone="no"?>
<!DOCTYPE svg PUBLIC "-//W3C//DTD SVG 1.1//EN" "http://www.w3.org/Graphics/SVG/1.1/DTD/svg11.dtd">
<svg width="100%" height="100%" viewBox="0 0 4000 3000" version="1.1" xmlns="http://www.w3.org/2000/svg" xmlns:xlink="http://www.w3.org/1999/xlink" xml:space="preserve" xmlns:serif="http://www.serif.com/" style="fill-rule:evenodd;clip-rule:evenodd;stroke-linejoin:round;stroke-miterlimit:2;">
    <g transform="matrix(1,0,0,1,-52.8063,14.9501)">
        <path d="M1982.04,1827.63C1972.03,1835.28 1958.14,1835.29 1948.11,1827.67C1905.26,1795.12 1796.12,1712.21 1796.12,1712.21L2122.64,1712.21C2127.32,1712.21 2131.91,1711.41 2136.25,1709.89C2136.25,1709.89 2025.27,1794.62 1982.04,1827.63ZM1293.15,1394.8L1306.02,1384.97C1331.39,1405.86 1342.02,1436.71 1337.96,1469.04C1334.36,1497.68 1318.34,1527.17 1303.09,1556.38C1287.37,1586.48 1272.49,1616.28 1271.59,1644.45C1269.53,1708.87 1323.02,1745.18 1392.76,1758.72L1303.37,1826.97C1293.38,1834.59 1279.54,1834.63 1269.51,1827.06L1105.16,1703.04C1105.29,1671.62 1111.58,1638.62 1150.72,1606.76C1182.93,1580.54 1231.02,1563.36 1263.14,1537.76C1311.08,1499.57 1324.35,1439.26 1293.15,1394.8ZM2539.29,1211.82L2566.06,1232.02C2538.32,1262.64 2510.14,1279.54 2465.13,1291.14C2436.44,1298.53 2408.96,1299.22 2382.83,1302C2342.49,1306.3 2305.29,1315.48 2271.53,1359.76C2242.22,1398.23 2242.48,1454.99 2242.37,1516.15C2242.3,1555.64 2242,1596.98 2232.75,1636.22L2156.53,1694.41C2161.24,1687.59 2163.81,1679.44 2163.81,1671.04C2163.81,1622.8 2163.81,1541.49 2163.81,1478.76C2163.81,1421.26 2137.54,1366.91 2092.49,1331.19C2016.61,1271.05 1896.1,1184.02 1814.38,1164.89C1798.08,1161.08 1781.11,1161.07 1764.81,1164.88C1683.17,1183.94 1562.95,1271.02 1487.03,1331.19C1441.98,1366.91 1415.71,1421.26 1415.71,1478.76C1415.71,1541.49 1415.71,1622.8 1415.71,1671.04C1415.71,1681.96 1420.05,1692.43 1427.77,1700.15C1434.77,1707.15 1444.03,1711.37 1453.83,1712.1L1400.26,1753C1331.14,1741.18 1276.57,1707.58 1278.59,1644.68C1279.46,1617.44 1294.1,1588.72 1309.29,1559.62C1324.94,1529.65 1341.21,1499.3 1344.9,1469.91C1349.2,1435.69 1338.15,1403.03 1311.73,1380.61L1636.4,1132.74C1642.66,1129.52 1649.01,1126.31 1655.43,1123.19C1692.26,1105.28 1731.48,1090.17 1770.16,1093.44C1794.16,1095.48 1818.68,1107.24 1843.72,1119.54C1869.49,1132.18 1895.79,1145.41 1922.51,1150.04C1977.16,1159.51 2033.31,1142.92 2088.81,1113.9L2163.51,1170.27L2163.51,1249.11L2298.46,1146.08C2325.57,1196.4 2362.2,1228.22 2402.54,1240.62C2446.04,1254 2493.99,1244.93 2539.29,1211.82ZM1287.58,1399.05C1316.48,1440.56 1303.49,1496.67 1258.78,1532.29C1226.64,1557.9 1178.53,1575.09 1146.31,1601.33C1107.03,1633.3 1099.12,1666.27 1098.29,1697.85L1026.1,1643.38C1019.11,1638.11 1014.99,1629.87 1014.97,1621.11C1014.94,1612.35 1019.02,1604.09 1025.98,1598.78L1287.58,1399.05ZM2571.68,1236.26L2664.69,1306.45L2505.75,1427.79C2436.74,1423.56 2393.35,1431.08 2363.21,1452.91C2328.53,1478.02 2311.14,1522.27 2292.8,1590.37L2241.3,1629.69C2248.93,1592.37 2249.31,1553.46 2249.37,1516.17C2249.48,1456.7 2248.6,1401.4 2277.1,1364.01C2309.37,1321.68 2345.01,1313.07 2383.57,1308.96C2410.03,1306.14 2437.83,1305.4 2466.88,1297.92C2513.63,1285.87 2542.78,1268.37 2571.68,1236.26ZM2301.94,1583.39L2497.25,1434.28C2435.19,1431.13 2395.35,1438.27 2367.31,1458.58C2335.17,1481.86 2318.79,1522.27 2301.94,1583.39ZM2533.44,1207.41L2374.87,1087.74L2304.1,1141.77C2330.22,1190.78 2365.5,1221.9 2404.6,1233.93C2445.61,1246.55 2490.68,1238.03 2533.44,1207.41ZM1664.91,1110.97L1820.64,992.071C1873.02,1058.79 1912.98,1094.87 1958.13,1106.94C1990.18,1115.51 2024.93,1112.08 2068.67,1098.7L2082.63,1109.24C2029.56,1136.59 1975.96,1152.2 1923.7,1143.14C1897.61,1138.62 1871.97,1125.6 1846.81,1113.25C1820.93,1100.55 1795.54,1088.57 1770.75,1086.47C1735.22,1083.46 1699.2,1095.29 1664.91,1110.97ZM2061.75,1093.48L1873.69,951.567L1826.17,987.851C1877.1,1052.89 1915.83,1088.39 1959.94,1100.18C1989.7,1108.13 2021.84,1105.2 2061.75,1093.48Z" style="fill:rgb(0,150,21);"/>
        <g transform="matrix(0.514896,0,0,1.14375,835.79,-1119.12)">
            <path d="M1865.09,2248.91C1865.09,2246.67 1863.11,2244.52 1859.59,2242.94C1856.08,2241.35 1851.31,2240.46 1846.33,2240.46L1588.83,2240.46C1583.85,2240.46 1579.08,2241.35 1575.57,2242.94C1572.05,2244.52 1570.08,2246.67 1570.08,2248.91C1570.08,2290.92 1570.08,2475.49 1570.08,2475.49L1865.09,2475.49L1865.09,2248.91Z" style="fill:rgb(0,150,21);"/>
        </g>
    </g>
    <g transform="matrix(0.411407,0,0,0.411407,1293.13,812.265)">
        <path d="M1991.23,2515.23C1987.36,2515.23 1983.65,2513.7 1980.92,2510.96C1978.18,2508.23 1976.64,2504.52 1976.64,2500.65C1976.64,2450.89 1976.64,2288.16 1976.64,2238.41C1976.64,2234.54 1978.18,2230.83 1980.92,2228.09C1983.65,2225.36 1987.36,2223.82 1991.23,2223.82C2005.71,2223.82 2027.26,2223.82 2038,2223.82C2042.19,2223.82 2046.17,2225.62 2048.94,2228.77C2075.61,2259.04 2215.72,2418.1 2215.72,2418.1L2215.72,2238.41C2215.72,2234.54 2217.26,2230.83 2219.99,2228.09C2222.72,2225.36 2226.43,2223.82 2230.3,2223.82L2267.8,2223.82C2271.67,2223.82 2275.38,2225.36 2278.12,2228.09C2280.85,2230.83 2282.39,2234.54 2282.39,2238.41C2282.39,2288.16 2282.39,2450.89 2282.39,2500.65C2282.39,2504.52 2280.85,2508.23 2278.12,2510.96C2275.38,2513.7 2271.67,2515.23 2267.8,2515.23C2253.32,2515.23 2231.77,2515.23 2221.03,2515.23C2216.84,2515.23 2212.86,2513.43 2210.09,2510.29C2183.34,2479.95 2042.46,2320.15 2042.46,2320.15C2042.46,2320.15 2042.46,2455.36 2042.46,2500.65C2042.46,2508.7 2035.93,2515.23 2027.88,2515.23C2016.98,2515.23 2002.13,2515.23 1991.23,2515.23Z" style="fill:rgb(51,51,51);fill-rule:nonzero;"/>
        <path d="M2399.8,2515.23C2388.34,2515.23 2377.83,2512.54 2368.27,2507.14C2358.72,2501.74 2351.11,2494.49 2345.45,2485.39C2339.78,2476.28 2336.95,2466.26 2336.95,2455.33L2336.95,2283.72C2336.95,2272.8 2339.78,2262.78 2345.45,2253.67C2351.11,2244.57 2358.72,2237.31 2368.27,2231.92C2377.83,2226.52 2388.34,2223.82 2399.8,2223.82L2579.85,2223.82C2591.21,2223.82 2601.62,2226.52 2611.09,2231.92C2620.55,2237.31 2628.19,2244.57 2633.99,2253.67C2639.8,2262.78 2642.7,2272.8 2642.7,2283.72L2642.7,2455.33C2642.7,2466.26 2639.8,2476.28 2633.99,2485.39C2628.19,2494.49 2620.55,2501.74 2611.09,2507.14C2601.62,2512.54 2591.21,2515.23 2579.85,2515.23L2399.8,2515.23ZM2402.77,2452.1L2576.03,2452.1L2576.03,2286.96L2402.77,2286.96L2402.77,2452.1Z" style="fill:rgb(51,51,51);fill-rule:nonzero;"/>
        <g transform="matrix(2.43028,0,0,2.43028,-3283.59,-1940.12)">
            <path d="M2460.97,1738.63C2460.97,1731.93 2463.64,1725.5 2468.38,1720.76C2473.12,1716.02 2479.55,1713.36 2486.25,1713.36C2511.86,1713.36 2551.27,1713.36 2576.88,1713.36C2583.59,1713.36 2590.01,1716.02 2594.75,1720.76C2599.49,1725.5 2602.16,1731.93 2602.16,1738.63L2602.16,1833.27L2574.9,1833.27L2574.9,1740.62L2545.19,1740.62L2545.19,1833.27L2517.94,1833.27L2517.94,1740.62L2488.06,1740.62L2488.06,1833.27L2460.97,1833.27L2460.97,1738.63Z" style="fill:rgb(51,51,51);fill-rule:nonzero;"/>
        </g>
        <g transform="matrix(1,0,0,1,-5.09572,1.54614e-11)">
            <path d="M3114.62,2515.23C3110.75,2515.23 3107.04,2513.7 3104.31,2510.96C3101.57,2508.23 3100.04,2504.52 3100.04,2500.65L3100.04,2283.72C3100.04,2272.8 3102.87,2262.78 3108.53,2253.67C3114.19,2244.57 3121.8,2237.31 3131.36,2231.92C3140.91,2226.52 3151.42,2223.82 3162.89,2223.82L3342.51,2223.82C3353.97,2223.82 3364.48,2226.52 3374.04,2231.92C3383.59,2237.31 3391.27,2244.57 3397.08,2253.67C3402.88,2262.78 3405.78,2272.8 3405.78,2283.72L3405.78,2500.65C3405.78,2504.52 3404.24,2508.23 3401.51,2510.96C3398.77,2513.7 3395.07,2515.23 3391.2,2515.23C3380.07,2515.23 3364.82,2515.23 3353.7,2515.23C3345.64,2515.23 3339.11,2508.7 3339.11,2500.65C3339.11,2474.27 3339.11,2421.34 3339.11,2421.34L3165.86,2421.34L3165.86,2500.65C3165.86,2508.7 3159.33,2515.23 3151.27,2515.23C3140.37,2515.23 3125.53,2515.23 3114.62,2515.23ZM3165.86,2358.2L3339.11,2358.2L3339.11,2286.96L3165.86,2286.96L3165.86,2358.2Z" style="fill:rgb(51,51,51);fill-rule:nonzero;"/>
        </g>
        <g transform="matrix(1,0,0,1,-7.64357,7.07132e-11)">
            <path d="M3477.48,2515.23C3473.61,2515.23 3469.9,2513.7 3467.17,2510.96C3464.43,2508.23 3462.89,2504.52 3462.89,2500.65C3462.89,2450.89 3462.89,2288.16 3462.89,2238.41C3462.89,2234.54 3464.43,2230.83 3467.17,2228.09C3469.9,2225.36 3473.61,2223.82 3477.48,2223.82C3529.86,2223.82 3705.37,2223.82 3705.37,2223.82C3716.83,2223.82 3727.34,2226.52 3736.9,2231.92C3746.45,2237.31 3754.13,2244.57 3759.93,2253.67C3765.74,2262.78 3768.64,2272.8 3768.64,2283.72L3768.64,2455.33C3768.64,2466.26 3765.74,2476.28 3759.93,2485.39C3754.13,2494.49 3746.45,2501.74 3736.9,2507.14C3727.34,2512.54 3716.83,2515.23 3705.37,2515.23L3477.48,2515.23ZM3528.29,2452.1L3701.97,2452.1L3701.97,2286.96L3528.29,2286.96L3528.29,2452.1Z" style="fill:rgb(51,51,51);fill-rule:nonzero;"/>
        </g>
        <g transform="matrix(1,0,0,1,2.12322,6.95763e-11)">
            <path d="M3828.02,2515.23C3824.15,2515.23 3820.45,2513.7 3817.71,2510.96C3814.97,2508.23 3813.44,2504.52 3813.44,2500.65C3813.44,2450.89 3813.44,2288.16 3813.44,2238.41C3813.44,2234.54 3814.97,2230.83 3817.71,2228.09C3820.45,2225.36 3824.15,2223.82 3828.02,2223.82C3838.7,2223.82 3853.14,2223.82 3863.82,2223.82C3867.69,2223.82 3871.4,2225.36 3874.14,2228.09C3876.87,2230.83 3878.41,2234.54 3878.41,2238.41C3878.41,2288.16 3878.41,2450.89 3878.41,2500.65C3878.41,2504.52 3876.87,2508.23 3874.14,2510.96C3871.4,2513.7 3867.69,2515.23 3863.82,2515.23C3853.14,2515.23 3838.7,2515.23 3828.02,2515.23Z" style="fill:rgb(51,51,51);fill-rule:nonzero;"/>
        </g>
        <g transform="matrix(1,0,0,1,11.4654,-1.97815e-11)">
            <path d="M3938.22,2515.23C3934.35,2515.23 3930.64,2513.7 3927.91,2510.96C3925.17,2508.23 3923.63,2504.52 3923.63,2500.65C3923.63,2449.85 3923.63,2283.72 3923.63,2283.72C3923.63,2272.8 3926.46,2262.78 3932.13,2253.67C3937.79,2244.57 3945.4,2237.31 3954.95,2231.92C3964.51,2226.52 3975.01,2223.82 3986.48,2223.82L4166.1,2223.82C4177.57,2223.82 4188.08,2226.52 4197.63,2231.92C4207.19,2237.31 4214.87,2244.57 4220.67,2253.67C4226.47,2262.78 4229.38,2272.8 4229.38,2283.72C4229.38,2283.72 4229.38,2449.85 4229.38,2500.65C4229.38,2504.52 4227.84,2508.23 4225.1,2510.96C4222.37,2513.7 4218.66,2515.23 4214.79,2515.23C4203.67,2515.23 4188.41,2515.23 4177.29,2515.23C4169.24,2515.23 4162.71,2508.7 4162.71,2500.65C4162.71,2474.27 4162.71,2421.34 4162.71,2421.34L3989.45,2421.34L3989.45,2500.65C3989.45,2508.7 3982.92,2515.23 3974.87,2515.23C3963.97,2515.23 3949.12,2515.23 3938.22,2515.23ZM3989.45,2358.2L4162.71,2358.2L4162.71,2286.96L3989.45,2286.96L3989.45,2358.2Z" style="fill:rgb(51,51,51);fill-rule:nonzero;"/>
        </g>
        <g transform="matrix(1,0,0,1,3.39714,28.1139)">
            <path d="M2640.51,2939.88C2632.45,2939.88 2625.92,2933.35 2625.92,2925.29C2625.92,2874.96 2625.92,2711.61 2625.92,2711.61L2520.76,2711.61C2516.89,2711.61 2513.18,2710.07 2510.45,2707.33C2507.71,2704.6 2506.17,2700.89 2506.18,2697.02C2506.18,2686.82 2506.18,2673.25 2506.18,2663.05C2506.17,2659.18 2507.71,2655.47 2510.45,2652.74C2513.18,2650 2516.89,2648.47 2520.76,2648.47C2572.33,2648.47 2745.76,2648.47 2797.33,2648.47C2801.2,2648.47 2804.91,2650 2807.65,2652.74C2810.38,2655.47 2811.92,2659.18 2811.92,2663.05C2811.92,2673.25 2811.92,2686.82 2811.92,2697.02C2811.92,2700.89 2810.38,2704.6 2807.65,2707.33C2804.91,2710.07 2801.2,2711.61 2797.33,2711.61C2765.41,2711.61 2692.17,2711.61 2692.17,2711.61L2692.17,2925.29C2692.17,2933.35 2685.64,2939.88 2677.58,2939.88C2666.57,2939.88 2651.52,2939.88 2640.51,2939.88Z" style="fill:rgb(51,51,51);fill-rule:nonzero;"/>
        </g>
        <g transform="matrix(1,0,0,1,3.39714,28.1139)">
            <path d="M2913.62,2939.88C2902.15,2939.88 2891.64,2937.18 2882.09,2931.78C2872.53,2926.39 2864.93,2919.13 2859.26,2910.03C2853.6,2900.92 2850.77,2890.9 2850.77,2879.98L2850.77,2708.37C2850.77,2697.44 2853.6,2687.42 2859.26,2678.32C2864.93,2669.21 2872.53,2661.96 2882.09,2656.56C2891.64,2651.16 2902.15,2648.47 2913.62,2648.47L3093.67,2648.47C3105.03,2648.47 3115.44,2651.16 3124.91,2656.56C3134.37,2661.96 3142.01,2669.21 3147.81,2678.32C3153.61,2687.42 3156.51,2697.44 3156.51,2708.37L3156.51,2879.98C3156.51,2890.9 3153.61,2900.92 3147.81,2910.03C3142.01,2919.13 3134.37,2926.39 3124.91,2931.78C3115.44,2937.18 3105.03,2939.88 3093.67,2939.88L2913.62,2939.88ZM2916.59,2876.74L3089.85,2876.74L3089.85,2711.61L2916.59,2711.61L2916.59,2876.74Z" style="fill:rgb(51,51,51);fill-rule:nonzero;"/>
        </g>
        <g transform="matrix(1,0,0,1,4.24643,28.1139)">
            <path d="M3273.08,2939.88C3261.61,2939.88 3251.11,2937.18 3241.55,2931.78C3232,2926.39 3224.39,2919.13 3218.73,2910.03C3213.06,2900.92 3210.23,2890.9 3210.23,2879.98L3210.23,2663.05C3210.23,2659.18 3211.77,2655.47 3214.5,2652.74C3217.24,2650 3220.95,2648.47 3224.82,2648.47C3235.72,2648.47 3250.56,2648.47 3261.47,2648.47C3269.52,2648.47 3276.05,2654.99 3276.05,2663.05C3276.05,2713.38 3276.05,2876.74 3276.05,2876.74L3449.31,2876.74C3449.31,2876.74 3449.31,2713.38 3449.31,2663.05C3449.31,2654.99 3455.84,2648.47 3463.89,2648.47C3475.01,2648.47 3490.27,2648.47 3501.39,2648.47C3505.26,2648.47 3508.97,2650 3511.7,2652.74C3514.44,2655.47 3515.98,2659.18 3515.98,2663.05C3515.98,2713.85 3515.98,2879.98 3515.98,2879.98C3515.98,2890.9 3513.07,2900.92 3507.27,2910.03C3501.47,2919.13 3493.83,2926.39 3484.37,2931.78C3474.9,2937.18 3464.49,2939.88 3453.13,2939.88L3273.08,2939.88Z" style="fill:rgb(51,51,51);fill-rule:nonzero;"/>
        </g>
        <g transform="matrix(2.43028,0,0,2.43028,-3279.35,-1912.01)">
            <path d="M2883.3,1968.61L2847.39,1968.69L2847.39,2002C2847.39,2005.31 2844.7,2008 2841.39,2008C2836.9,2008 2830.79,2008 2826.31,2008C2822.99,2008 2820.31,2005.31 2820.31,2002C2820.31,1981.54 2820.31,1914.71 2820.31,1894.26C2820.31,1892.66 2820.94,1891.14 2822.06,1890.01C2823.19,1888.89 2824.72,1888.26 2826.31,1888.26C2847.86,1888.26 2920.08,1888.26 2920.08,1888.26C2924.8,1888.26 2929.12,1889.37 2933.05,1891.59C2936.98,1893.81 2940.14,1896.8 2942.53,1900.58C2944.92,1904.35 2946.11,1908.46 2946.11,1912.9L2946.11,1943.88C2946.11,1948.32 2944.92,1952.43 2942.53,1956.2C2940.14,1959.98 2936.98,1962.98 2933.05,1965.2C2929.12,1967.42 2924.8,1968.53 2920.08,1968.53L2918.71,1968.53C2918.71,1968.53 2938.7,1991.02 2944.42,1997.47C2945.4,1998.56 2945.94,1999.98 2945.94,2001.45C2945.94,2001.63 2945.94,2001.81 2945.94,2002C2945.94,2005.31 2943.25,2008 2939.94,2008C2933.98,2008 2925.11,2008 2920.69,2008C2918.97,2008 2917.33,2007.26 2916.19,2005.96C2909.09,1997.9 2883.3,1968.61 2883.3,1968.61ZM2847.39,1942.55L2918.68,1942.55L2918.68,1914.07L2847.39,1914.07L2847.39,1942.55Z" style="fill:rgb(51,51,51);fill-rule:nonzero;"/>
        </g>
        <g transform="matrix(1,0,0,1,7.21893,28.5186)">
            <path d="M3990.73,2939.88C3979.26,2939.88 3968.75,2937.18 3959.2,2931.78C3949.64,2926.39 3942.03,2919.13 3936.37,2910.03C3930.71,2900.92 3927.88,2890.9 3927.88,2879.98L3927.88,2867.44C3927.88,2859.39 3934.41,2852.86 3942.46,2852.86C3953.37,2852.86 3968.21,2852.86 3979.12,2852.86C3982.98,2852.86 3986.69,2854.39 3989.43,2857.13C3992.16,2859.87 3993.7,2863.58 3993.7,2867.44C3993.7,2872.41 3993.7,2876.74 3993.7,2876.74L4166.95,2876.74L4166.95,2825.74L3990.73,2825.74C3979.26,2825.74 3968.75,2823.04 3959.2,2817.65C3949.64,2812.25 3942.03,2805.03 3936.37,2795.99C3930.71,2786.94 3927.88,2776.89 3927.88,2765.84L3927.88,2708.37C3927.88,2697.44 3930.71,2687.42 3936.37,2678.32C3942.03,2669.21 3949.64,2661.96 3959.2,2656.56C3968.75,2651.16 3979.26,2648.47 3990.73,2648.47L4170.77,2648.47C4182.13,2648.47 4192.55,2651.16 4202.01,2656.56C4211.48,2661.96 4219.11,2669.21 4224.92,2678.32C4230.72,2687.42 4233.62,2697.44 4233.62,2708.37C4233.62,2708.37 4233.62,2714.48 4233.62,2720.9C4233.62,2728.95 4227.09,2735.48 4219.04,2735.48C4207.91,2735.48 4192.66,2735.48 4181.54,2735.48C4177.67,2735.48 4173.96,2733.95 4171.23,2731.21C4168.49,2728.48 4166.95,2724.77 4166.95,2720.9L4166.95,2711.61L3993.7,2711.61L3993.7,2762.6L4170.77,2762.6C4182.13,2762.6 4192.55,2765.3 4202.01,2770.7C4211.48,2776.09 4219.11,2783.31 4224.92,2792.36C4230.72,2801.4 4233.62,2811.45 4233.62,2822.5L4233.62,2879.98C4233.62,2890.9 4230.72,2900.92 4224.92,2910.03C4219.11,2919.13 4211.48,2926.39 4202.01,2931.78C4192.55,2937.18 4182.13,2939.88 4170.77,2939.88L3990.73,2939.88Z" style="fill:rgb(51,51,51);fill-rule:nonzero;"/>
        </g>
    </g>
</svg>
